<svg xmlns="http://www.w3.org/2000/svg" viewBox="0 0 650 760" role="img" aria-label="Retrato profesional en despacho">
  <defs>
    <linearGradient id="bg" x1="0" x2="1" y1="0" y2="1">
      <stop offset="0" stop-color="#f6f3ed"/>
      <stop offset="1" stop-color="#d7dce1"/>
    </linearGradient>
  </defs>
  <rect width="650" height="760" fill="url(#bg)"/>
  <rect x="0" y="0" width="210" height="760" fill="#0b1c31"/>
  <rect x="62" y="80" width="84" height="540" fill="#c9a24a" opacity=".24"/>
  <circle cx="370" cy="230" r="98" fill="#d8b58a"/>
  <path d="M275 224c15-116 177-121 192-3 3-75-44-124-98-127-62-3-111 47-94 130z" fill="#2f241d"/>
  <path d="M205 760c16-213 70-346 151-405h63c89 61 145 195 163 405z" fill="#0b1c31"/>
  <path d="M334 358h71l-18 166h-35z" fill="#fff"/>
  <path d="M326 394 368 515l48-121 67 366H241z" fill="#132d48"/>
  <path d="M368 518v242" stroke="#c9a24a" stroke-width="5"/>
</svg>
